<?xml version="1.0" standalone="no"?>
<!DOCTYPE svg PUBLIC "-//W3C//DTD SVG 20010904//EN"
 "http://www.w3.org/TR/2001/REC-SVG-20010904/DTD/svg10.dtd">
<svg version="1.0" xmlns="http://www.w3.org/2000/svg"
 width="100.000000pt" height="100.000000pt" viewBox="0 0 100.000000 100.000000"
 preserveAspectRatio="xMidYMid meet">
<metadata>
Created by potrace 1.14, written by Peter Selinger 2001-2017
</metadata>
<g transform="translate(0.000000,100.000000) scale(0.100000,-0.100000)"
fill="#000000" stroke="none">
<path d="M472 710 c-15 -36 -27 -50 -41 -51 -12 -1 -25 -3 -31 -4 -5 -1 -22
-3 -37 -4 -25 -1 -26 -2 -11 -17 15 -15 13 -19 -30 -48 -26 -17 -60 -50 -77
-73 -16 -23 -33 -42 -36 -42 -3 -1 -10 11 -16 27 l-10 27 -22 -47 c-26 -57
-27 -57 -85 -59 -25 -1 -46 -5 -46 -9 0 -4 18 -22 39 -39 l39 -32 -13 -54 c-7
-30 -10 -55 -8 -55 3 0 26 12 52 27 l48 26 39 -26 c47 -33 54 -33 48 -5 -18
82 -16 92 26 125 l41 32 -33 5 c-18 3 -43 7 -56 8 -22 3 -22 3 -5 36 40 73
140 149 164 125 6 -6 6 -26 -1 -58 -15 -68 -12 -69 66 -19 18 12 26 10 67 -16
57 -36 59 -36 48 -7 -4 12 -11 39 -15 59 -6 31 -4 37 14 43 39 12 124 -55 161
-127 l19 -38 -47 -1 c-27 -1 -51 -1 -55 0 -15 2 -8 -8 34 -47 41 -40 42 -41
30 -80 -19 -63 -16 -65 38 -36 l50 27 41 -27 c22 -15 43 -25 46 -22 3 3 0 27
-6 53 l-12 47 42 38 c23 21 39 39 36 39 -4 1 -11 3 -17 4 -5 1 -27 3 -49 4
-36 1 -39 3 -60 54 -21 49 -23 51 -34 30 -16 -29 -27 -26 -59 19 -16 21 -47
50 -70 65 -24 15 -45 28 -47 30 -2 1 2 9 9 18 10 12 9 15 -6 16 -29 1 -76 7
-88 12 -7 3 -18 24 -26 46 -7 23 -17 44 -21 46 -3 3 -16 -18 -27 -45z"/>
</g>
</svg>
